<?xml version="1.0" encoding="iso-8859-1"?>
<!-- Generator: Adobe Illustrator 16.0.4, SVG Export Plug-In . SVG Version: 6.00 Build 0)  -->
<!DOCTYPE svg PUBLIC "-//W3C//DTD SVG 1.1//EN" "http://www.w3.org/Graphics/SVG/1.1/DTD/svg11.dtd">
<svg version="1.1" id="Layer_1" xmlns="http://www.w3.org/2000/svg" xmlns:xlink="http://www.w3.org/1999/xlink" x="0px" y="0px"
	 width="360px" height="360px" viewBox="0 0 360 360" style="enable-background:new 0 0 360 360;" xml:space="preserve">
<path style="fill:#FFFFFF;" d="M257.743,76.165l-67.748-32.262c-2.424-1.154-5.615-1.79-8.985-1.79c-3.372,0-6.562,0.636-8.986,1.79
	l-67.749,32.262c-5.109,2.433-9.266,9.016-9.266,14.675v178c0,5.658,4.157,12.242,9.266,14.674l67.749,32.262
	c2.423,1.154,5.614,1.791,8.986,1.791c3.37,0,6.562-0.637,8.985-1.791l67.748-32.262c5.109-2.432,9.266-9.016,9.266-14.674v-178
	C267.009,85.18,262.853,78.597,257.743,76.165z"/>
<path style="fill:#77BCE8;" d="M257.01,90.839c0-1.845-1.899-4.853-3.565-5.646l-67.749-32.262c-0.83-0.396-2.497-0.818-4.686-0.818
	s-3.855,0.422-4.687,0.818l-67.749,32.262c-1.666,0.793-3.565,3.801-3.565,5.646v118h152V90.839z"/>
<path style="opacity:0.5;fill:#FFFFFF;" d="M181.01,52.113c-2.188,0-3.855,0.422-4.687,0.818l-67.749,32.262
	c-1.666,0.793-3.565,3.801-3.565,5.646v118h76.035V52.114C181.032,52.114,181.021,52.113,181.01,52.113z"/>
<g>
	<path style="fill:#1C3B6B;" d="M136.044,162.839h9c4.95,0,9,4.05,9,9v9c0,4.95,4.05,9,9,9h36c4.95,0,9-4.051,9-9v-9
		c0-4.95,4.051-9,9-9h9c4.95,0,9-4.05,9-9v-36c0-4.95-4.05-9-9-9h-9c-4.949,0-9-4.05-9-9v-9c0-4.95-4.05-9-9-9h-36
		c-4.95,0-9,4.05-9,9v9c0,4.95-4.05,9-9,9h-9c-4.95,0-9,4.05-9,9v36C127.044,158.789,131.094,162.839,136.044,162.839z"/>
	<path style="fill:#1C3B6B;" d="M181.009,277.268c-5.546,0-10.058,4.512-10.058,10.058s4.512,10.058,10.058,10.058
		c5.545,0,10.058-4.512,10.058-10.058S186.555,277.268,181.009,277.268z M181.009,294.936c-4.196,0-7.61-3.414-7.61-7.61
		s3.414-7.61,7.61-7.61c4.196,0,7.61,3.414,7.61,7.61S185.205,294.936,181.009,294.936z"/>
	<path style="fill:#1C3B6B;" d="M182.198,286.102v-3.787c-0.384-0.091-0.778-0.151-1.189-0.151c-0.437,0-0.854,0.071-1.259,0.174
		v3.765h-3.74c-0.097,0.395-0.162,0.801-0.162,1.224c0,0.424,0.066,0.831,0.163,1.225h3.74v3.765
		c0.405,0.103,0.823,0.173,1.259,0.173c0.411,0,0.805-0.061,1.189-0.151v-3.786h3.81c0.098-0.394,0.163-0.801,0.163-1.225
		c0-0.423-0.065-0.829-0.162-1.224H182.198z"/>
	<path style="fill:#1C3B6B;" d="M120.802,231.428c-2.53,0-4.326,0.514-5.338,1.525c-1.08,1.08-1.229,2.657-1.229,4.199v6.438
		c0,2.296,0.883,3.966,2.699,5.107l4.799,3.019c0.743,0.479,1.119,1.262,1.119,2.323v7.032c0,0.781-0.248,1.505-2.049,1.505
		c-1.85,0-2.099-0.761-2.099-1.505v-6.686c0-0.263-0.213-0.477-0.476-0.477h-3.517c-0.263,0-0.476,0.214-0.476,0.477v6.042
		c0,1.575,0.15,3.176,1.229,4.199c1.012,1.013,2.808,1.525,5.338,1.525c2.509,0,4.252-0.496,5.338-1.525
		c1.089-1.09,1.229-2.816,1.229-4.199v-7.182c0-2.161-0.881-3.781-2.7-4.959l-4.758-2.975c-0.802-0.489-1.208-1.319-1.208-2.465
		v-6.339c0-0.744,0.249-1.505,2.099-1.505c1.801,0,2.049,0.724,2.049,1.505v5.052c0,0.263,0.213,0.476,0.476,0.476h3.565
		c0.263,0,0.477-0.213,0.477-0.476v-4.408c0-1.435-0.146-3.056-1.238-4.209C125.053,231.923,123.31,231.428,120.802,231.428z"/>
	<path style="fill:#1C3B6B;" d="M136.971,231.773h-3.517c-0.263,0-0.476,0.213-0.476,0.477v33.031c0,0.263,0.213,0.476,0.476,0.476
		h3.517c0.263,0,0.476-0.213,0.476-0.476V232.25C137.447,231.986,137.234,231.773,136.971,231.773z"/>
	<path style="fill:#1C3B6B;" d="M153.918,231.773h-12.331c-0.263,0-0.476,0.213-0.476,0.477v2.624c0,0.264,0.213,0.477,0.476,0.477
		h3.932v29.931c0,0.263,0.213,0.476,0.476,0.476h3.516c0.263,0,0.476-0.213,0.476-0.476v-29.931h3.932
		c0.263,0,0.476-0.213,0.476-0.477v-2.624C154.394,231.986,154.181,231.773,153.918,231.773z"/>
	<path style="fill:#1C3B6B;" d="M168,231.773h-9.459c-0.263,0-0.476,0.213-0.476,0.477v33.031c0,0.263,0.213,0.476,0.476,0.476H168
		c0.263,0,0.476-0.213,0.476-0.476v-2.625c0-0.264-0.213-0.477-0.476-0.477h-5.466v-12.022h5.417c0.263,0,0.476-0.213,0.476-0.477
		v-2.624c0-0.263-0.213-0.477-0.476-0.477h-5.417v-11.229H168c0.263,0,0.476-0.213,0.476-0.477v-2.624
		C168.477,231.986,168.264,231.773,168,231.773z"/>
	<path style="fill:#1C3B6B;" d="M186.263,231.428c-2.529,0-4.325,0.514-5.338,1.525c-1.08,1.079-1.229,2.657-1.229,4.199v23.226
		c0,1.542,0.149,3.12,1.229,4.199c1.014,1.013,2.809,1.526,5.338,1.526c2.509,0,4.252-0.497,5.348-1.535
		c1.075-1.135,1.22-2.756,1.22-4.19v-5.992c0-0.263-0.213-0.477-0.476-0.477h-3.565c-0.264,0-0.477,0.214-0.477,0.477v6.636
		c0,0.781-0.248,1.504-2.05,1.504c-1.85,0-2.099-0.761-2.099-1.504v-24.513c0-0.744,0.249-1.505,2.099-1.505
		c1.802,0,2.05,0.724,2.05,1.505v6.289c0,0.263,0.213,0.476,0.477,0.476h3.565c0.263,0,0.476-0.213,0.476-0.476v-5.646
		c0-1.435-0.145-3.056-1.238-4.209C190.516,231.923,188.772,231.428,186.263,231.428z"/>
	<path style="fill:#1C3B6B;" d="M205.507,231.428c-2.529,0-4.325,0.514-5.338,1.525c-1.08,1.079-1.229,2.657-1.229,4.199v28.129
		c0,0.263,0.213,0.476,0.476,0.476h3.516c0.264,0,0.477-0.213,0.477-0.476V251.94h4.148v13.341c0,0.263,0.213,0.476,0.477,0.476
		h3.516c0.264,0,0.477-0.213,0.477-0.476v-28.129c0-1.542-0.149-3.119-1.229-4.199C209.784,231.941,208.005,231.428,205.507,231.428
		z M207.557,248.363h-4.148v-11.854c0-0.744,0.249-1.505,2.099-1.505c1.807,0,2.05,0.761,2.05,1.505V248.363z"/>
	<path style="fill:#1C3B6B;" d="M224.697,231.773h-6.091c-0.264,0-0.477,0.213-0.477,0.477v33.031c0,0.263,0.213,0.476,0.477,0.476
		h3.516c0.263,0,0.476-0.213,0.476-0.476v-14.926h2.1c0.535,0,1.062,0.221,1.445,0.604c0.412,0.411,0.604,0.886,0.604,1.495v12.827
		c0,0.263,0.213,0.476,0.477,0.476h3.565c0.263,0,0.476-0.213,0.476-0.476v-12.876c0-2.005-0.985-3.217-2.156-3.826
		c1.192-0.633,2.156-1.856,2.156-3.851v-7.229c0-1.455-0.086-3.099-1.13-4.199C229.106,232.272,227.328,231.773,224.697,231.773z
		 M226.746,244.68c0,0.584-0.208,1.102-0.62,1.514c-0.34,0.377-0.848,0.585-1.429,0.585h-2.1v-11.576h2.1
		c0.581,0,1.089,0.209,1.445,0.604c0.406,0.405,0.604,0.878,0.604,1.445V244.68z"/>
	<path style="fill:#1C3B6B;" d="M247.308,231.773h-9.458c-0.263,0-0.476,0.213-0.476,0.477v33.031c0,0.263,0.213,0.476,0.476,0.476
		h9.458c0.264,0,0.477-0.213,0.477-0.476v-2.625c0-0.264-0.213-0.477-0.477-0.477h-5.466v-12.022h5.416
		c0.264,0,0.477-0.213,0.477-0.477v-2.624c0-0.263-0.213-0.477-0.477-0.477h-5.416v-11.229h5.466c0.264,0,0.477-0.213,0.477-0.477
		v-2.624C247.784,231.986,247.571,231.773,247.308,231.773z"/>
	<path style="fill:#1C3B6B;" d="M258.604,74.359l-67.749-32.262c-2.688-1.28-6.184-1.984-9.845-1.984
		c-3.662,0-7.158,0.704-9.846,1.984l-67.749,32.262c-5.835,2.778-10.406,10.018-10.406,16.48v178
		c0,6.462,4.571,13.701,10.406,16.479l67.749,32.262c2.688,1.28,6.184,1.984,9.846,1.984c3.661,0,7.157-0.704,9.845-1.984
		l67.749-32.262c5.835-2.778,10.405-10.018,10.405-16.479v-178C269.009,84.376,264.438,77.137,258.604,74.359z M106.855,81.582
		l67.749-32.262c1.611-0.768,3.946-1.207,6.406-1.207c2.459,0,4.794,0.439,6.405,1.207l67.749,32.262
		c3.059,1.457,5.845,5.869,5.845,9.258v122h-160v-122C101.009,87.451,103.795,83.039,106.855,81.582z M255.164,278.097
		l-67.749,32.263c-1.611,0.767-3.946,1.206-6.405,1.206c-2.46,0-4.795-0.439-6.406-1.206l-67.749-32.263
		c-3.06-1.457-5.846-5.869-5.846-9.257v-52h160v52C261.009,272.228,258.223,276.64,255.164,278.097z"/>
</g>
<g>
	<path style="fill:#FFFFFF;" d="M200.487,117.087h-6.721c-0.901,0-1.634,0.732-1.634,1.633v36.238c0,0.9,0.732,1.634,1.634,1.634
		h2.267c0.9,0,1.633-0.733,1.633-1.634V143.82h2.821c3.243,0,5.571-0.647,6.94-1.943c1.305-1.378,1.414-3.472,1.414-5.325v-12.196
		c0-1.938-0.109-3.947-1.424-5.334C206.116,117.72,203.85,117.087,200.487,117.087z M203.244,137.382
		c0,1.854-1.928,2.055-2.757,2.055h-2.821v-17.965h2.821c1.258,0,2.757,0.356,2.757,2.054V137.382z"/>
	<path style="fill:#FFFFFF;" d="M185.05,117.087h-2.267c-0.9,0-1.633,0.732-1.633,1.633v31.114c0,1.854-1.928,2.054-2.757,2.054
		c-0.81,0-2.693-0.2-2.693-2.054V118.72l-0.003-0.232l-0.019-0.017c-0.121-0.782-0.799-1.384-1.614-1.384h-2.2
		c-0.9,0-1.633,0.732-1.633,1.633v31.114c0,1.854-1.883,2.054-2.693,2.054c-0.829,0-2.757-0.2-2.757-2.054V118.72
		c0-0.9-0.733-1.633-1.633-1.633h-2.267c-0.9,0-1.633,0.732-1.633,1.633v30.603c0,1.743,0,3.912,1.415,5.325
		c1.188,1.254,3.471,1.944,6.429,1.944c2.357,0,4.711-1.037,5.874-2.507c1.157,1.47,3.487,2.507,5.812,2.507
		c2.999,0,5.305-0.69,6.484-1.935c1.318-1.318,1.423-3.118,1.423-5.335V118.72C186.684,117.819,185.951,117.087,185.05,117.087z"/>
</g>
</svg>
